<?xml version="1.0" encoding="UTF-8"?>
<!-- Generator: Adobe Illustrator 17.0.0, SVG Export Plug-In . SVG Version: 6.00 Build 0)  -->
<!DOCTYPE svg PUBLIC "-//W3C//DTD SVG 1.1//EN" "http://www.w3.org/Graphics/SVG/1.1/DTD/svg11.dtd">
<svg version="1.1" id="Layer_1" xmlns="http://www.w3.org/2000/svg" xmlns:xlink="http://www.w3.org/1999/xlink" x="0px" y="0px" width="428.592px" height="92.688px" viewBox="0 0 428.592 92.688" enable-background="new 0 0 428.592 92.688" xml:space="preserve">
<g id="XMLID_2_">
	<g id="XMLID_8_">
		<g id="XMLID_9_">
			<g>
				<g id="XMLID_122_">
					<g>
						<path id="XMLID_151_" d="M72.418,32.491c0-2.554,2.067-4.743,4.622-4.743c2.675,0,4.743,2.068,4.743,4.743v11.795        c4.622-10.458,13.742-16.781,21.646-16.781c2.796,0,4.621,2.066,4.621,4.743c0,2.554-1.703,4.377-4.135,4.743        c-12.161,1.459-22.132,10.58-22.132,28.697v21.403c0,2.554-1.946,4.744-4.621,4.744s-4.743-2.069-4.743-4.744V32.491z"/>
						<path id="XMLID_148_" d="M110.238,60.095v-0.242c0-17.755,13.863-32.833,32.834-32.833c18.85,0,32.713,14.836,32.713,32.588        v0.245c0,17.754-13.985,32.835-32.956,32.835C123.98,92.688,110.238,77.852,110.238,60.095z M166.179,60.095v-0.242        c0-13.498-10.095-24.564-23.349-24.564c-13.621,0-22.985,11.066-22.985,24.319v0.245c0,13.497,9.972,24.443,23.228,24.443        C156.693,84.296,166.179,73.35,166.179,60.095z"/>
						<path id="XMLID_130_" d="M183.929,60.095v-0.242c0-17.755,13.863-32.833,32.833-32.833c18.85,0,32.713,14.836,32.713,32.588        v0.245c0,17.754-13.984,32.835-32.955,32.835C197.671,92.688,183.929,77.852,183.929,60.095z M239.868,60.095v-0.242        c0-13.498-10.094-24.564-23.348-24.564c-13.62,0-22.984,11.066-22.984,24.319v0.245c0,13.497,9.972,24.443,23.227,24.443        C230.382,84.296,239.868,73.35,239.868,60.095z"/>
						<path id="XMLID_128_" d="M259.078,6.588c0-2.554,2.066-4.743,4.62-4.743c2.677,0,4.744,2.188,4.744,4.743V64.23l34.049-34.658        c1.097-1.215,2.19-1.824,3.65-1.824c2.552,0,4.254,2.068,4.254,4.378c0,1.46-0.606,2.433-1.823,3.649L288.021,55.96        l22.498,28.336c0.851,1.094,1.215,1.944,1.215,3.162c0,2.554-1.945,4.378-4.499,4.378c-1.702,0-2.797-0.608-4.014-2.19        l-21.768-27.483l-13.012,12.891v12.039c0,2.675-1.945,4.744-4.621,4.744c-2.677,0-4.743-2.069-4.743-4.744V6.588z"/>
						<path id="XMLID_125_" d="M348.213,92.688c-17.268,0-31.374-13.257-31.374-32.714v-0.242c0-18.12,12.768-32.712,30.157-32.712        c18.607,0,29.186,15.201,29.186,31.86c0,2.554-2.066,4.378-4.378,4.378h-45.48c1.337,13.618,10.943,21.28,22.132,21.28        c7.783,0,13.499-3.039,18.12-7.296c0.729-0.608,1.581-1.094,2.675-1.094c2.311,0,4.135,1.824,4.135,4.012        c0,1.094-0.487,2.19-1.46,3.041C365.967,88.916,358.915,92.688,348.213,92.688z M366.819,56.326        c-0.973-11.431-7.538-21.402-20.065-21.402c-10.942,0-19.213,9.121-20.429,21.402H366.819z"/>
						<path id="XMLID_123_" d="M382.016,84.538c-0.852-0.606-1.702-1.824-1.702-3.405c0-2.188,1.823-4.012,4.135-4.012        c0.852,0,1.703,0.242,2.312,0.73c6.444,4.378,13.133,6.687,19.943,6.687c7.538,0,13.013-3.891,13.013-9.971v-0.245        c0-6.323-7.42-8.756-15.687-11.064c-9.852-2.799-20.795-6.204-20.795-17.755v-0.242c0-10.823,8.998-17.999,21.401-17.999        c6.688,0,13.984,2.068,20.067,5.351c1.215,0.73,2.309,2.067,2.309,3.892c0,2.189-1.824,4.014-4.135,4.014        c-0.852,0-1.579-0.244-2.066-0.486c-5.351-3.04-11.067-4.865-16.418-4.865c-7.419,0-12.16,3.892-12.16,9.121v0.244        c0,5.959,7.783,8.27,16.175,10.823c9.727,2.918,20.185,6.687,20.185,17.996v0.245c0,11.916-9.849,18.848-22.376,18.848        C397.949,92.442,388.827,89.403,382.016,84.538z"/>
					</g>
				</g>
			</g>
		</g>
	</g>
	<g id="XMLID_3_">
		<g id="XMLID_6_">
			<path id="XMLID_7_" fill="#ED1C24" d="M22.825,67.18c4.764-0.068,9.877-2.025,14.396-5.509c0.407-0.313,0.8-0.606,1.189-0.894     c-2.516-1.322-5.822-2.951-10.46-4.788c-14.082-5.58-15.339,1.513-15.354,4.129c0.002,0.179,0.007,0.355,0.013,0.533     c0.004,0.102,0.021,0.199,0.025,0.301c0.004,0.031,0.008,0.068,0.008,0.068s-0.004-0.037-0.008-0.068     c0.043,0.845,0.148,1.671,0.294,2.483C14.974,66.087,19.344,67.233,22.825,67.18z"/>
		</g>
		<path id="XMLID_5_" fill="#B11116" d="M46.498,57.17c-1.552,0.421-3.493,1.267-5.861,2.761c-0.571,0.384-1.157,0.79-1.776,1.244    c-0.44,0.322-0.893,0.662-1.358,1.021c-1.867,1.438-3.836,2.606-5.84,3.508c-0.314,0.145-0.623,0.271-0.934,0.399    c-0.217,0.088-0.433,0.18-0.65,0.261c-7.392,2.826-13.977,1.375-16.601-1.528c-0.136-0.121-0.263-0.248-0.388-0.377    c0.002,0.009,0.003,0.019,0.005,0.028c0.052,0.228,0.119,0.449,0.179,0.673c0.094,0.352,0.189,0.702,0.301,1.046    c0.08,0.242,0.17,0.479,0.258,0.718c0.117,0.315,0.238,0.629,0.371,0.937c0.104,0.24,0.214,0.477,0.327,0.711    c0.142,0.295,0.29,0.585,0.446,0.871c0.125,0.23,0.252,0.459,0.387,0.684c0.167,0.28,0.344,0.553,0.524,0.823    c0.143,0.214,0.284,0.43,0.435,0.638c0.198,0.273,0.41,0.537,0.622,0.8c0.152,0.188,0.298,0.381,0.457,0.563    c0.261,0.3,0.538,0.584,0.816,0.867c0.126,0.13,0.245,0.267,0.375,0.393c0.408,0.393,0.834,0.768,1.276,1.124    c0.16,0.13,0.331,0.246,0.496,0.371c0.298,0.226,0.597,0.451,0.908,0.66c0.201,0.135,0.41,0.257,0.616,0.384    c0.29,0.18,0.581,0.357,0.881,0.522c0.222,0.121,0.449,0.233,0.675,0.347c0.3,0.149,0.602,0.294,0.911,0.429    c0.234,0.102,0.471,0.198,0.709,0.291c0.317,0.124,0.638,0.237,0.963,0.345c0.24,0.079,0.48,0.157,0.724,0.228    c0.341,0.098,0.688,0.181,1.037,0.261c0.237,0.054,0.472,0.112,0.711,0.158c0.39,0.073,0.786,0.126,1.183,0.176    c0.207,0.026,0.411,0.063,0.619,0.082c0.603,0.057,1.213,0.09,1.831,0.091c0.007,0,0.013,0.001,0.02,0.001    c0.009,0,0.018-0.002,0.026-0.002c0.632,0,1.256-0.034,1.873-0.093c0.218-0.021,0.429-0.062,0.645-0.09    c0.404-0.053,0.808-0.104,1.204-0.182c0.25-0.049,0.493-0.114,0.739-0.172c0.352-0.083,0.705-0.166,1.05-0.268    c0.255-0.075,0.504-0.163,0.754-0.248c0.326-0.111,0.65-0.224,0.967-0.351c0.25-0.101,0.495-0.21,0.74-0.319    c0.306-0.138,0.609-0.28,0.907-0.434c0.239-0.122,0.475-0.251,0.708-0.383c0.29-0.164,0.575-0.336,0.856-0.515    c0.225-0.143,0.447-0.287,0.666-0.439c0.276-0.191,0.545-0.394,0.811-0.599c0.205-0.159,0.411-0.316,0.609-0.483    c0.267-0.224,0.522-0.459,0.776-0.696c0.181-0.168,0.364-0.333,0.538-0.508c0.263-0.265,0.511-0.544,0.759-0.823    c0.146-0.165,0.299-0.324,0.44-0.494c0.287-0.347,0.555-0.709,0.818-1.075c0.084-0.118,0.177-0.229,0.259-0.348    c0.34-0.496,0.658-1.008,0.952-1.535c0.044-0.081,0.081-0.167,0.125-0.249c0.241-0.447,0.47-0.901,0.677-1.369    c0.078-0.177,0.142-0.361,0.214-0.541c0.155-0.381,0.307-0.764,0.438-1.157c0.072-0.215,0.129-0.436,0.194-0.653    c0.109-0.369,0.214-0.739,0.302-1.117c0.055-0.237,0.098-0.479,0.144-0.719c0.044-0.229,0.079-0.46,0.115-0.691    c0.138-0.891,0.237-1.794,0.251-2.72C51.655,59.009,51.029,56.009,46.498,57.17z"/>
		<path id="XMLID_4_" d="M39.982,29.331c-1.301-0.366-4.717-0.877-4.717-0.877c-0.875-0.111-1.954-0.337-2.63-1.016    c-0.676-0.679-0.931-1.618-0.931-2.575L31.7,24.863L31.699,4.518c0-2.46-2.001-4.461-4.461-4.461c-2.46,0-4.461,2.001-4.461,4.461    l0.001,23.192c0,0-0.148,2.163,0.825,4.145c1.139,2.321,3.784,4.812,9.398,5.4c13.206,1.385,21.947,10.656,21.947,22.988    c0,12.69-10.323,23.013-23.013,23.013c-12.689,0-23.012-10.323-23.012-23.013V4.462C8.923,2.001,6.921,0,4.461,0    C2.001,0,0,2.001,0,4.462v55.781c0,17.609,14.326,31.936,31.935,31.936c17.609,0,31.936-14.326,31.936-31.936    C63.871,45.399,53.8,32.895,39.982,29.331z"/>
	</g>
</g>
</svg>